<svg width="44" height="45" viewBox="0 0 44 45" fill="none" xmlns="http://www.w3.org/2000/svg">
<rect y="0.5" width="44" height="44" rx="10" fill="#4160F2" fill-opacity="0.21"/>
<path d="M22 14.5C22.2652 14.5 22.5196 14.6054 22.7071 14.7929C22.8946 14.9804 23 15.2348 23 15.5V21.5H29C29.2652 21.5 29.5196 21.6054 29.7071 21.7929C29.8946 21.9804 30 22.2348 30 22.5C30 22.7652 29.8946 23.0196 29.7071 23.2071C29.5196 23.3946 29.2652 23.5 29 23.5H23V29.5C23 29.7652 22.8946 30.0196 22.7071 30.2071C22.5196 30.3946 22.2652 30.5 22 30.5C21.7348 30.5 21.4804 30.3946 21.2929 30.2071C21.1054 30.0196 21 29.7652 21 29.5V23.5H15C14.7348 23.5 14.4804 23.3946 14.2929 23.2071C14.1054 23.0196 14 22.7652 14 22.5C14 22.2348 14.1054 21.9804 14.2929 21.7929C14.4804 21.6054 14.7348 21.5 15 21.5H21V15.5C21 15.2348 21.1054 14.9804 21.2929 14.7929C21.4804 14.6054 21.7348 14.5 22 14.5Z" fill="#405FF2"/>
</svg>
