<svg width="44" height="44" viewBox="0 0 44 44" fill="none" xmlns="http://www.w3.org/2000/svg">
<rect width="44" height="44" rx="10" fill="#4160F2" fill-opacity="0.21"/>
<g clip-path="url(#clip0_39_229247)">
<path d="M29.2 29.2C27.868 29.2 26.8 30.268 26.8 31.6C26.8 32.2365 27.0529 32.847 27.5029 33.2971C27.953 33.7471 28.5635 34 29.2 34C29.8365 34 30.447 33.7471 30.8971 33.2971C31.3471 32.847 31.6 32.2365 31.6 31.6C31.6 30.9635 31.3471 30.353 30.8971 29.9029C30.447 29.4529 29.8365 29.2 29.2 29.2ZM10 10V12.4H12.4L16.72 21.508L15.088 24.448C14.908 24.784 14.8 25.18 14.8 25.6C14.8 26.2365 15.0529 26.847 15.5029 27.2971C15.953 27.7471 16.5635 28 17.2 28H31.6V25.6H17.704C17.6244 25.6 17.5481 25.5684 17.4919 25.5121C17.4356 25.4559 17.404 25.3796 17.404 25.3C17.404 25.24 17.416 25.192 17.44 25.156L18.52 23.2H27.46C28.36 23.2 29.152 22.696 29.56 21.964L33.856 14.2C33.94 14.008 34 13.804 34 13.6C34 13.2817 33.8736 12.9765 33.6485 12.7515C33.4235 12.5264 33.1183 12.4 32.8 12.4H15.052L13.924 10M17.2 29.2C15.868 29.2 14.8 30.268 14.8 31.6C14.8 32.2365 15.0529 32.847 15.5029 33.2971C15.953 33.7471 16.5635 34 17.2 34C17.8365 34 18.447 33.7471 18.8971 33.2971C19.3471 32.847 19.6 32.2365 19.6 31.6C19.6 30.9635 19.3471 30.353 18.8971 29.9029C18.447 29.4529 17.8365 29.2 17.2 29.2Z" fill="#405FF2"/>
</g>
<defs>
<clipPath id="clip0_39_229247">
<rect width="24" height="24" fill="white" transform="translate(10 10)"/>
</clipPath>
</defs>
</svg>
