<svg width="45" height="44" viewBox="0 0 45 44" fill="none" xmlns="http://www.w3.org/2000/svg">
<rect x="0.5" width="44" height="44" rx="10" fill="#4160F2" fill-opacity="0.21"/>
<g clip-path="url(#clip0_39_229263)">
<path fill-rule="evenodd" clip-rule="evenodd" d="M12.6753 10C12.4233 10 12.1987 10.1747 12.112 10.4373L10.5733 15.1113C10.5248 15.2591 10.5 15.4137 10.5 15.5693V17.4287C10.5 18.48 11.2673 19.3333 12.214 19.3333C13.1607 19.3333 13.9287 18.48 13.9287 17.4287C13.9287 18.4807 14.696 19.3333 15.6427 19.3333C16.5893 19.3333 17.3573 18.48 17.3573 17.4287C17.3573 18.4807 18.1247 19.3333 19.0713 19.3333C20.018 19.3333 20.7847 18.4813 20.786 17.43C20.786 18.4813 21.5533 19.3333 22.5 19.3333C23.4467 19.3333 24.214 18.48 24.214 17.4287C24.214 18.4807 24.982 19.3333 25.9287 19.3333C26.8753 19.3333 27.642 18.4813 27.6427 17.43C27.6433 18.4813 28.4107 19.3333 29.3573 19.3333C30.304 19.3333 31.0713 18.48 31.0713 17.4287C31.0713 18.4807 31.8387 19.3333 32.786 19.3333C33.7327 19.3333 34.5 18.48 34.5 17.4287V15.5693C34.5 15.4137 34.4753 15.2591 34.4267 15.1113L32.888 10.438C32.8013 10.1747 32.5767 10 32.3247 10H12.6753Z" fill="#405FF2"/>
<path fill-rule="evenodd" clip-rule="evenodd" d="M13.166 20.1534V25.3334H11.4993C11.4109 25.3334 11.3262 25.3685 11.2636 25.431C11.2011 25.4936 11.166 25.5783 11.166 25.6667V26.3334C11.166 26.4218 11.2011 26.5066 11.2636 26.5691C11.3262 26.6316 11.4109 26.6667 11.4993 26.6667H33.4993C33.5878 26.6667 33.6725 26.6316 33.7351 26.5691C33.7976 26.5066 33.8327 26.4218 33.8327 26.3334V25.6667C33.8327 25.5783 33.7976 25.4936 33.7351 25.431C33.6725 25.3685 33.5878 25.3334 33.4993 25.3334H31.8327V20.1534C31.5535 20.0424 31.2957 19.8838 31.0707 19.6847C30.8976 19.8369 30.7056 19.966 30.4993 20.0687V25.3334H14.4993V20.0687C14.2931 19.966 14.1011 19.8369 13.928 19.6847C13.704 19.8814 13.448 20.0414 13.166 20.1534ZM30.4993 18.8487C30.5558 18.7923 30.6091 18.7316 30.6593 18.6667H30.4993V18.8487ZM31.482 18.6667C31.5831 18.7971 31.701 18.9134 31.8327 19.0127V18.6667H31.482ZM13.166 19.0127C13.2988 18.9147 13.4169 18.7982 13.5167 18.6667H13.166V19.0127ZM14.3393 18.6667H14.4993V18.8487C14.4424 18.7914 14.389 18.7306 14.3393 18.6667ZM12.166 28.0001C12.0776 28.0001 11.9928 28.0352 11.9303 28.0977C11.8678 28.1602 11.8327 28.245 11.8327 28.3334V33.3334C11.8327 33.5102 11.9029 33.6798 12.0279 33.8048C12.153 33.9298 12.3225 34.0001 12.4993 34.0001H32.4993C32.6762 34.0001 32.8457 33.9298 32.9708 33.8048C33.0958 33.6798 33.166 33.5102 33.166 33.3334V28.3334C33.166 28.245 33.1309 28.1602 33.0684 28.0977C33.0059 28.0352 32.9211 28.0001 32.8327 28.0001H12.166Z" fill="#405FF2"/>
<path d="M15.834 23.6666C15.834 23.5782 15.8691 23.4934 15.9316 23.4309C15.9941 23.3684 16.0789 23.3333 16.1673 23.3333H18.1673C18.2557 23.3333 18.3405 23.3684 18.403 23.4309C18.4655 23.4934 18.5007 23.5782 18.5007 23.6666V24.9999C18.5007 25.0883 18.4655 25.1731 18.403 25.2356C18.3405 25.2981 18.2557 25.3333 18.1673 25.3333H16.1673C16.0789 25.3333 15.9941 25.2981 15.9316 25.2356C15.8691 25.1731 15.834 25.0883 15.834 24.9999V23.6666Z" fill="#405FF2"/>
<path d="M17.166 24.3333C17.166 24.2448 17.2011 24.1601 17.2636 24.0975C17.3262 24.035 17.4109 23.9999 17.4993 23.9999H19.4993C19.5878 23.9999 19.6725 24.035 19.7351 24.0975C19.7976 24.1601 19.8327 24.2448 19.8327 24.3333V24.9999C19.8327 25.0883 19.7976 25.1731 19.7351 25.2356C19.6725 25.2981 19.5878 25.3333 19.4993 25.3333H17.4993C17.4109 25.3333 17.3262 25.2981 17.2636 25.2356C17.2011 25.1731 17.166 25.0883 17.166 24.9999V24.3333ZM22.4993 24.3333C22.4993 24.5985 22.394 24.8528 22.2065 25.0404C22.0189 25.2279 21.7646 25.3333 21.4993 25.3333C21.2341 25.3333 20.9798 25.2279 20.7922 25.0404C20.6047 24.8528 20.4993 24.5985 20.4993 24.3333C20.4993 24.068 20.6047 23.8137 20.7922 23.6261C20.9798 23.4386 21.2341 23.3333 21.4993 23.3333C21.7646 23.3333 22.0189 23.4386 22.2065 23.6261C22.394 23.8137 22.4993 24.068 22.4993 24.3333Z" fill="#405FF2"/>
</g>
<defs>
<clipPath id="clip0_39_229263">
<rect width="24" height="24" fill="white" transform="translate(10.5 10)"/>
</clipPath>
</defs>
</svg>
